<svg width="96" height="96" viewBox="0 0 96 96" fill="none" xmlns="http://www.w3.org/2000/svg">
<path d="M87 1.5H9C4.8645 1.5 1.5 4.8645 1.5 9V69C1.5 73.1355 4.8645 76.5 9 76.5H55.5V77.9985C55.4941 80.1664 55.9182 82.3139 56.7478 84.3168C57.5774 86.3197 58.796 88.1382 60.333 89.667C61.8616 91.2039 63.6799 92.4223 65.6825 93.2519C67.6851 94.0815 69.8324 94.5057 72 94.5C81.0975 94.5 88.5 87.0975 88.5 78V76.3485C90.1926 76.0004 91.7135 75.0795 92.8064 73.741C93.8994 72.4024 94.4975 70.7281 94.5 69V9C94.5 4.8645 91.1355 1.5 87 1.5ZM85.5 78C85.5 85.443 79.443 91.5 72 91.5C68.394 91.5 65.0025 90.0945 62.4525 87.5445C59.9025 84.9945 58.4985 81.6045 58.4985 77.997V74.124C58.4969 72.4944 58.1175 70.8873 57.39 69.429L55.5975 65.844C55.5271 65.7025 55.494 65.5453 55.5012 65.3874C55.5085 65.2295 55.5558 65.0761 55.6389 64.9416C55.7219 64.807 55.8378 64.6959 55.9757 64.6187C56.1136 64.5414 56.2689 64.5006 56.427 64.5C57.772 64.5016 59.0614 65.0366 60.0124 65.9876C60.9634 66.9386 61.4984 68.2281 61.5 69.573V73.5H64.5V48C64.5 47.1735 65.1735 46.5 66 46.5C66.8265 46.5 67.5 47.1735 67.5 48V73.5H70.5V61.5C70.5 60.6735 71.1735 60 72 60C72.8265 60 73.5 60.6735 73.5 61.5V73.5H76.5V63C76.5 62.1735 77.1735 61.5 78 61.5C78.8265 61.5 79.5 62.1735 79.5 63V73.5H82.5V64.5C82.5173 64.1138 82.6829 63.7491 82.9623 63.4819C83.2417 63.2147 83.6134 63.0656 84 63.0656C84.3866 63.0656 84.7583 63.2147 85.0377 63.4819C85.3171 63.7491 85.4827 64.1138 85.5 64.5V78ZM91.5 69C91.497 69.9276 91.2071 70.8316 90.67 71.5878C90.1328 72.3441 89.3748 72.9156 88.5 73.224V64.5C88.5 62.0205 86.481 60 84 60C83.1945 60 82.449 60.2295 81.7935 60.6015C81.39 59.9594 80.8306 59.43 80.1672 59.0625C79.5039 58.6951 78.7583 58.5015 78 58.5C77.1945 58.5 76.449 58.7295 75.7935 59.1015C75.39 58.4594 74.8306 57.93 74.1672 57.5625C73.5039 57.1951 72.7583 57.0015 72 57C71.472 57 70.971 57.108 70.5 57.276V48C70.5 45.519 68.481 43.5 66 43.5C63.519 43.5 61.5 45.519 61.5 48V63.345C60.1095 62.211 58.359 61.5 56.427 61.5C55.7578 61.501 55.0999 61.6728 54.5156 61.9991C53.9314 62.3254 53.4401 62.7955 53.0883 63.3648C52.7365 63.9341 52.5359 64.5838 52.5054 65.2523C52.4749 65.9208 52.6155 66.586 52.914 67.185L54.708 70.7715C55.1325 71.622 55.383 72.555 55.4625 73.5015H9C6.519 73.5015 4.5 71.4825 4.5 69.0015V9C4.5 6.519 6.519 4.5 9 4.5H87C89.481 4.5 91.5 6.519 91.5 9V69Z" fill="url(#paint0_linear_3550_870)"/>
<path d="M13.5 58.5C10.191 58.5 7.5 61.191 7.5 64.5C7.5 67.809 10.191 70.5 13.5 70.5C16.809 70.5 19.5 67.809 19.5 64.5C19.5 61.191 16.809 58.5 13.5 58.5ZM13.5 67.5C11.8455 67.5 10.5 66.1545 10.5 64.5C10.5 62.8455 11.8455 61.5 13.5 61.5C15.1545 61.5 16.5 62.8455 16.5 64.5C16.5 66.1545 15.1545 67.5 13.5 67.5ZM28.5 58.5C25.191 58.5 22.5 61.191 22.5 64.5C22.5 67.809 25.191 70.5 28.5 70.5C31.809 70.5 34.5 67.809 34.5 64.5C34.5 61.191 31.809 58.5 28.5 58.5ZM28.5 67.5C26.8455 67.5 25.5 66.1545 25.5 64.5C25.5 62.8455 26.8455 61.5 28.5 61.5C30.1545 61.5 31.5 62.8455 31.5 64.5C31.5 66.1545 30.1545 67.5 28.5 67.5ZM16.5 51C16.5 48.519 14.481 46.5 12 46.5C9.519 46.5 7.5 48.519 7.5 51C7.5 53.481 9.519 55.5 12 55.5C14.481 55.5 16.5 53.481 16.5 51ZM10.5 51C10.5 50.1735 11.1735 49.5 12 49.5C12.8265 49.5 13.5 50.1735 13.5 51C13.5 51.8265 12.8265 52.5 12 52.5C11.1735 52.5 10.5 51.8265 10.5 51ZM28.5 51C28.5 48.519 26.481 46.5 24 46.5C21.519 46.5 19.5 48.519 19.5 51C19.5 53.481 21.519 55.5 24 55.5C26.481 55.5 28.5 53.481 28.5 51ZM22.5 51C22.5 50.1735 23.1735 49.5 24 49.5C24.8265 49.5 25.5 50.1735 25.5 51C25.5 51.8265 24.8265 52.5 24 52.5C23.1735 52.5 22.5 51.8265 22.5 51ZM40.5 51C40.5 48.519 38.481 46.5 36 46.5C33.519 46.5 31.5 48.519 31.5 51C31.5 53.481 33.519 55.5 36 55.5C38.481 55.5 40.5 53.481 40.5 51ZM36 52.5C35.1735 52.5 34.5 51.8265 34.5 51C34.5 50.1735 35.1735 49.5 36 49.5C36.8265 49.5 37.5 50.1735 37.5 51C37.5 51.8265 36.8265 52.5 36 52.5ZM67.5 28.776V7.5H64.5V28.776C62.7585 29.397 61.5 31.047 61.5 33C61.5 34.953 62.7585 36.603 64.5 37.224V40.5H67.5V37.224C69.2415 36.603 70.5 34.953 70.5 33C70.5 31.047 69.2415 29.397 67.5 28.776ZM66 34.5C65.1735 34.5 64.5 33.8265 64.5 33C64.5 32.1735 65.1735 31.5 66 31.5C66.8265 31.5 67.5 32.1735 67.5 33C67.5 33.8265 66.8265 34.5 66 34.5ZM76.5 13.776V7.5H73.5V13.776C71.7585 14.397 70.5 16.047 70.5 18C70.5 19.953 71.7585 21.603 73.5 22.224V40.5H76.5V22.224C78.2415 21.603 79.5 19.953 79.5 18C79.5 16.047 78.2415 14.397 76.5 13.776ZM75 19.5C74.1735 19.5 73.5 18.8265 73.5 18C73.5 17.1735 74.1735 16.5 75 16.5C75.8265 16.5 76.5 17.1735 76.5 18C76.5 18.8265 75.8265 19.5 75 19.5ZM85.5 25.776V7.5H82.5V25.776C80.7585 26.397 79.5 28.047 79.5 30C79.5 31.953 80.7585 33.603 82.5 34.224V40.5H85.5V34.224C87.2415 33.603 88.5 31.953 88.5 30C88.5 28.047 87.2415 26.397 85.5 25.776ZM84 31.5C83.1735 31.5 82.5 30.8265 82.5 30C82.5 29.1735 83.1735 28.5 84 28.5C84.8265 28.5 85.5 29.1735 85.5 30C85.5 30.8265 84.8265 31.5 84 31.5Z" fill="url(#paint1_linear_3550_870)"/>
<path d="M8 25.5V28.5H9.5C10.3265 28.5 11 29.1735 11 30V31.5C11 33.981 13.019 36 15.5 36C17.981 36 20 33.981 20 31.5V16.5C20 15.6735 20.6735 15 21.5 15C22.3265 15 23 15.6735 23 16.5V25.5C23 27.981 25.019 30 27.5 30C29.981 30 32 27.981 32 25.5V21C32 20.1735 32.6735 19.5 33.5 19.5C34.3265 19.5 35 20.1735 35 21V28.5C35 30.981 37.019 33 39.5 33C41.981 33 44 30.981 44 28.5V16.5C44 15.6735 44.6735 15 45.5 15C46.3265 15 47 15.6735 47 16.5V28.5C47 30.981 49.019 33 51.5 33H53V30H51.5C50.6735 30 50 29.3265 50 28.5V16.5C50 14.019 47.981 12 45.5 12C43.019 12 41 14.019 41 16.5V28.5C41 29.3265 40.3265 30 39.5 30C38.6735 30 38 29.3265 38 28.5V21C38 18.519 35.981 16.5 33.5 16.5C31.019 16.5 29 18.519 29 21V25.5C29 26.3265 28.3265 27 27.5 27C26.6735 27 26 26.3265 26 25.5V16.5C26 14.019 23.981 12 21.5 12C19.019 12 17 14.019 17 16.5V31.5C17 32.3265 16.3265 33 15.5 33C14.6735 33 14 32.3265 14 31.5V30C14 27.519 11.981 25.5 9.5 25.5H8Z" fill="url(#paint2_linear_3550_870)"/>
<defs>
<linearGradient id="paint0_linear_3550_870" x1="48" y1="1.5" x2="48" y2="64.9214" gradientUnits="userSpaceOnUse">
<stop stop-color="#3FA1E3" stop-opacity="0.5"/>
<stop offset="1" stop-color="#3FA1E3"/>
</linearGradient>
<linearGradient id="paint1_linear_3550_870" x1="48" y1="1.5" x2="48" y2="64.9214" gradientUnits="userSpaceOnUse">
<stop stop-color="#3FA1E3" stop-opacity="0.5"/>
<stop offset="1" stop-color="#3FA1E3"/>
</linearGradient>
<linearGradient id="paint2_linear_3550_870" x1="48" y1="1.5" x2="48" y2="64.9214" gradientUnits="userSpaceOnUse">
<stop stop-color="#3FA1E3" stop-opacity="0.5"/>
<stop offset="1" stop-color="#3FA1E3"/>
</linearGradient>
</defs>
</svg>
