<svg width="96" height="96" viewBox="0 0 96 96" fill="none" xmlns="http://www.w3.org/2000/svg">
<path d="M48.0002 27.774C38.1555 27.774 30.1455 35.784 30.1455 45.6287C30.1455 52.6208 34.196 58.6706 40.0648 61.5991V66.6296L34.2837 72.4107L41.2272 79.3542L38.0809 82.5005V88.1527L44.5604 94.6322L46.1035 96L53.9518 88.1527V62.4415C60.8749 59.9824 65.8549 53.3841 65.8549 45.6287C65.8549 35.784 57.8449 27.774 48.0002 27.774ZM49.9841 86.5098L46.0164 90.4766L42.0487 86.5098V84.1434L46.8378 79.3542L39.8943 72.4107L44.0325 68.2725V63.0236C45.3106 63.3152 46.635 63.4834 48.0002 63.4834C48.6715 63.4834 49.3318 63.4388 49.9841 63.3664V86.5098ZM48.0002 59.5157C40.3428 59.5157 34.1132 53.2861 34.1132 45.6287C34.1132 37.9713 40.3428 31.7417 48.0002 31.7417C55.6576 31.7417 61.8872 37.9713 61.8872 45.6287C61.8872 53.2861 55.6576 59.5157 48.0002 59.5157Z" fill="url(#paint0_linear_3578_473)"/>
<path d="M48.0002 33.7255C44.7183 33.7255 42.0487 36.3952 42.0487 39.6771C42.0487 42.959 44.7183 45.6287 48.0002 45.6287C51.2821 45.6287 53.9518 42.959 53.9518 39.6771C53.9518 36.3952 51.2821 33.7255 48.0002 33.7255ZM48.0002 41.661C46.9066 41.661 46.0164 40.7707 46.0164 39.6771C46.0164 38.5835 46.9066 37.6933 48.0002 37.6933C49.0939 37.6933 49.9841 38.5835 49.9841 39.6771C49.9841 40.7707 49.0939 41.661 48.0002 41.661Z" fill="url(#paint1_linear_3578_473)"/>
<path d="M82.1016 30.6229C82.9511 27.8883 83.296 25.0433 83.1274 22.1353C82.4203 10.0268 72.1639 0.0978366 60.2656 0.000968679C60.2036 0.000968679 60.1426 0 60.0816 0C50.4626 0 41.8898 6.17243 38.5168 15.1376C34.9928 12.216 30.4371 10.7892 25.8146 11.2483C19.2208 11.9022 13.4736 16.5315 11.1739 23.0429C10.151 25.9412 9.89916 28.917 10.4213 31.9131C4.35637 34.8957 0.387695 41.2222 0.387695 48.1656C0.387695 58.1905 7.8969 65.4672 18.2424 65.4672H32.1294V61.4995H18.2424C10.0658 61.4995 4.35541 56.0168 4.35541 48.1656C4.35541 42.277 7.99183 36.9629 13.4048 34.9422L15.0981 34.3097L14.6263 32.5651C13.8756 29.7917 13.9734 27.032 14.915 24.3642C16.7051 19.298 21.1368 15.6994 26.2059 15.1966C30.6899 14.752 35.0722 16.609 37.9211 20.1621L40.5336 23.4207L41.4093 19.3368C43.3215 10.4085 51.16 3.96771 60.0816 3.96771C60.132 3.96771 60.1823 3.96771 60.2327 3.96868C70.0851 4.04908 78.5785 12.3022 79.1655 22.3658C79.3476 25.4918 78.8188 28.5286 77.5943 31.3939L76.5298 33.8844L79.2246 34.1479C86.3057 34.8415 91.645 40.8676 91.645 48.1656C91.645 56.0168 85.9347 61.4995 77.758 61.4995H61.8872V65.4672H77.758C88.1035 65.4672 95.6127 58.1905 95.6127 48.1656C95.6127 39.6878 89.9566 32.5476 82.1016 30.6229Z" fill="url(#paint2_linear_3578_473)"/>
<defs>
<linearGradient id="paint0_linear_3578_473" x1="48.0002" y1="0" x2="48.0002" y2="65.4672" gradientUnits="userSpaceOnUse">
<stop stop-color="#3FA1E3" stop-opacity="0.5"/>
<stop offset="1" stop-color="#3FA1E3"/>
</linearGradient>
<linearGradient id="paint1_linear_3578_473" x1="48.0002" y1="0" x2="48.0002" y2="65.4672" gradientUnits="userSpaceOnUse">
<stop stop-color="#3FA1E3" stop-opacity="0.5"/>
<stop offset="1" stop-color="#3FA1E3"/>
</linearGradient>
<linearGradient id="paint2_linear_3578_473" x1="48.0002" y1="0" x2="48.0002" y2="65.4672" gradientUnits="userSpaceOnUse">
<stop stop-color="#3FA1E3" stop-opacity="0.5"/>
<stop offset="1" stop-color="#3FA1E3"/>
</linearGradient>
</defs>
</svg>
