<svg width="1351" height="263" viewBox="0 0 1351 263" fill="none" xmlns="http://www.w3.org/2000/svg">
<mask id="path-1-inside-1_3776_295" fill="white">
<path d="M1171.73 259.001V75.7279H1222.56V259.001H1171.73Z"/>
<path d="M1197.26 52.1029C1189.7 52.1029 1183.22 49.5972 1177.81 44.5858C1172.48 39.4949 1169.82 33.4097 1169.82 26.3302C1169.82 19.3302 1172.48 13.3245 1177.81 8.31313C1183.22 3.22222 1189.7 0.676758 1197.26 0.676758C1204.82 0.676758 1211.26 3.22222 1216.59 8.31313C1222 13.3245 1224.7 19.3302 1224.7 26.3302C1224.7 33.4097 1222 39.4949 1216.59 44.5858C1211.26 49.5972 1204.82 52.1029 1197.26 52.1029Z"/>
<path d="M1347.31 75.7274V113.909H1312.83V202.682C1312.83 207.375 1313.55 211.034 1314.98 213.659C1316.41 216.205 1318.4 217.995 1320.95 219.029C1323.57 220.063 1326.59 220.58 1330.01 220.58C1332.4 220.58 1334.79 220.381 1337.17 219.983C1339.56 219.506 1341.39 219.148 1342.66 218.909L1350.66 256.733C1348.11 257.529 1344.53 258.443 1339.92 259.477C1335.3 260.591 1329.7 261.267 1323.09 261.506C1310.84 261.983 1300.1 260.352 1290.88 256.614C1281.73 252.875 1274.61 247.068 1269.52 239.193C1264.43 231.318 1261.92 221.375 1262 209.364V113.909H1236.95V75.7274H1262V31.8184H1312.83V75.7274H1347.31Z"/>
<path d="M1094.51 253.75C1100.16 259.318 1106.92 262.102 1114.8 262.102C1119.97 262.102 1124.7 260.83 1129 258.284C1133.29 255.659 1136.75 252.199 1139.38 247.904C1142.08 243.529 1143.43 238.716 1143.43 233.466C1143.43 225.671 1140.57 218.989 1134.84 213.421C1129.11 207.852 1122.43 205.068 1114.8 205.068C1106.92 205.068 1100.16 207.852 1094.51 213.421C1088.94 218.989 1086.16 225.671 1086.16 233.466C1086.16 241.341 1088.94 248.102 1094.51 253.75Z"/>
<path d="M939.685 153.046V259H888.855V14.6367H938.253V108.063H940.401C944.537 97.2447 951.219 88.7731 960.446 82.6481C969.674 76.4435 981.247 73.3413 995.168 73.3413C1007.9 73.3413 1018.99 76.1254 1028.46 81.6935C1038 87.1822 1045.4 95.0969 1050.65 105.438C1055.98 115.699 1058.61 127.989 1058.53 142.307V259H1007.7V151.375C1007.78 140.08 1004.91 131.29 999.105 125.006C993.378 118.722 985.344 115.58 975.003 115.58C968.083 115.58 961.958 117.051 956.628 119.995C951.378 122.938 947.242 127.233 944.219 132.881C941.276 138.449 939.765 145.171 939.685 153.046Z"/>
<path d="M865.246 113.909V75.7274H830.763V31.8184H779.934V75.7274H754.877V113.909H779.934V209.364C779.854 221.375 782.36 231.318 787.451 239.193C792.542 247.068 799.661 252.875 808.809 256.614C818.036 260.352 828.775 261.983 841.025 261.506C847.627 261.267 853.235 260.591 857.849 259.477C862.462 258.443 866.042 257.529 868.587 256.733L860.593 218.909C859.32 219.148 857.491 219.506 855.104 219.983C852.718 220.381 850.331 220.58 847.945 220.58C844.525 220.58 841.502 220.063 838.877 219.029C836.331 217.995 834.343 216.205 832.911 213.659C831.479 211.034 830.763 207.375 830.763 202.682V113.909H865.246Z"/>
<path d="M689.716 180.966V75.7275H740.545V259H691.744V225.711H689.835C685.699 236.449 678.818 245.08 669.193 251.603C659.648 258.125 647.994 261.387 634.233 261.387C621.983 261.387 611.205 258.603 601.898 253.034C592.591 247.466 585.312 239.551 580.062 229.29C574.892 219.029 572.267 206.739 572.188 192.421V75.7275H623.017V183.353C623.097 194.171 626 202.722 631.727 209.006C637.455 215.29 645.131 218.432 654.756 218.432C660.881 218.432 666.608 217.04 671.938 214.256C677.267 211.392 681.562 207.176 684.824 201.608C688.165 196.04 689.795 189.159 689.716 180.966Z"/>
<path fill-rule="evenodd" clip-rule="evenodd" d="M321.994 259H377.358L395.485 203.279H483.715L501.807 259H557.17L472.932 14.6367H406.352L321.994 259ZM440.596 70.4776L470.62 162.949H408.605L438.687 70.4776H440.596Z"/>
</mask>
<path d="M1171.73 259.001V75.7279H1222.56V259.001H1171.73Z" stroke="#74747E" stroke-width="2" mask="url(#path-1-inside-1_3776_295)"/>
<path d="M1197.26 52.1029C1189.7 52.1029 1183.22 49.5972 1177.81 44.5858C1172.48 39.4949 1169.82 33.4097 1169.82 26.3302C1169.82 19.3302 1172.48 13.3245 1177.81 8.31313C1183.22 3.22222 1189.7 0.676758 1197.26 0.676758C1204.82 0.676758 1211.26 3.22222 1216.59 8.31313C1222 13.3245 1224.7 19.3302 1224.7 26.3302C1224.7 33.4097 1222 39.4949 1216.59 44.5858C1211.26 49.5972 1204.82 52.1029 1197.26 52.1029Z" stroke="#74747E" stroke-width="2" mask="url(#path-1-inside-1_3776_295)"/>
<path d="M1347.31 75.7274V113.909H1312.83V202.682C1312.83 207.375 1313.55 211.034 1314.98 213.659C1316.41 216.205 1318.4 217.995 1320.95 219.029C1323.57 220.063 1326.59 220.58 1330.01 220.58C1332.4 220.58 1334.79 220.381 1337.17 219.983C1339.56 219.506 1341.39 219.148 1342.66 218.909L1350.66 256.733C1348.11 257.529 1344.53 258.443 1339.92 259.477C1335.3 260.591 1329.7 261.267 1323.09 261.506C1310.84 261.983 1300.1 260.352 1290.88 256.614C1281.73 252.875 1274.61 247.068 1269.52 239.193C1264.43 231.318 1261.92 221.375 1262 209.364V113.909H1236.95V75.7274H1262V31.8184H1312.83V75.7274H1347.31Z" stroke="#74747E" stroke-width="2" mask="url(#path-1-inside-1_3776_295)"/>
<path d="M1094.51 253.75C1100.16 259.318 1106.92 262.102 1114.8 262.102C1119.97 262.102 1124.7 260.83 1129 258.284C1133.29 255.659 1136.75 252.199 1139.38 247.904C1142.08 243.529 1143.43 238.716 1143.43 233.466C1143.43 225.671 1140.57 218.989 1134.84 213.421C1129.11 207.852 1122.43 205.068 1114.8 205.068C1106.92 205.068 1100.16 207.852 1094.51 213.421C1088.94 218.989 1086.16 225.671 1086.16 233.466C1086.16 241.341 1088.94 248.102 1094.51 253.75Z" stroke="#74747E" stroke-width="2" mask="url(#path-1-inside-1_3776_295)"/>
<path d="M939.685 153.046V259H888.855V14.6367H938.253V108.063H940.401C944.537 97.2447 951.219 88.7731 960.446 82.6481C969.674 76.4435 981.247 73.3413 995.168 73.3413C1007.9 73.3413 1018.99 76.1254 1028.46 81.6935C1038 87.1822 1045.4 95.0969 1050.65 105.438C1055.98 115.699 1058.61 127.989 1058.53 142.307V259H1007.7V151.375C1007.78 140.08 1004.91 131.29 999.105 125.006C993.378 118.722 985.344 115.58 975.003 115.58C968.083 115.58 961.958 117.051 956.628 119.995C951.378 122.938 947.242 127.233 944.219 132.881C941.276 138.449 939.765 145.171 939.685 153.046Z" stroke="#74747E" stroke-width="2" mask="url(#path-1-inside-1_3776_295)"/>
<path d="M865.246 113.909V75.7274H830.763V31.8184H779.934V75.7274H754.877V113.909H779.934V209.364C779.854 221.375 782.36 231.318 787.451 239.193C792.542 247.068 799.661 252.875 808.809 256.614C818.036 260.352 828.775 261.983 841.025 261.506C847.627 261.267 853.235 260.591 857.849 259.477C862.462 258.443 866.042 257.529 868.587 256.733L860.593 218.909C859.32 219.148 857.491 219.506 855.104 219.983C852.718 220.381 850.331 220.58 847.945 220.58C844.525 220.58 841.502 220.063 838.877 219.029C836.331 217.995 834.343 216.205 832.911 213.659C831.479 211.034 830.763 207.375 830.763 202.682V113.909H865.246Z" stroke="#74747E" stroke-width="2" mask="url(#path-1-inside-1_3776_295)"/>
<path d="M689.716 180.966V75.7275H740.545V259H691.744V225.711H689.835C685.699 236.449 678.818 245.08 669.193 251.603C659.648 258.125 647.994 261.387 634.233 261.387C621.983 261.387 611.205 258.603 601.898 253.034C592.591 247.466 585.312 239.551 580.062 229.29C574.892 219.029 572.267 206.739 572.188 192.421V75.7275H623.017V183.353C623.097 194.171 626 202.722 631.727 209.006C637.455 215.29 645.131 218.432 654.756 218.432C660.881 218.432 666.608 217.04 671.938 214.256C677.267 211.392 681.562 207.176 684.824 201.608C688.165 196.04 689.795 189.159 689.716 180.966Z" stroke="#74747E" stroke-width="2" mask="url(#path-1-inside-1_3776_295)"/>
<path fill-rule="evenodd" clip-rule="evenodd" d="M321.994 259H377.358L395.485 203.279H483.715L501.807 259H557.17L472.932 14.6367H406.352L321.994 259ZM440.596 70.4776L470.62 162.949H408.605L438.687 70.4776H440.596Z" stroke="#74747E" stroke-width="2" mask="url(#path-1-inside-1_3776_295)"/>
<path d="M92.6252 11.5H136.709C143.642 11.5 149.807 15.9059 152.054 22.4642L225.477 236.862C229.082 247.388 221.26 258.336 210.133 258.336H155.19C146.232 258.336 138.971 251.074 138.971 242.117V177.223C138.971 172.134 141.524 167.434 144.989 163.569C151.802 155.97 155.946 145.927 155.946 134.918C155.946 111.204 136.722 91.9803 113.008 91.9803C89.2945 91.9803 70.0706 111.204 70.0706 134.918C70.0706 145.927 74.2147 155.97 81.0272 163.569C84.4921 167.434 87.0457 172.135 87.0457 177.223V242.117C87.0457 251.074 79.7841 258.336 70.8266 258.336H17.7328C6.56448 258.336 -1.26202 247.312 2.42101 236.768L77.3134 22.3704C79.5875 15.8604 85.7293 11.5 92.6252 11.5Z" stroke="#74747E"/>
</svg>
