<svg width="16" height="16" viewBox="0 0 16 16" fill="none" xmlns="http://www.w3.org/2000/svg">
<path d="M9.22667 0H7.07333C4.82667 0 3 1.82667 3 4.07333V6.06667C3 7.36667 3.785 8.25667 4.545 9.11833C4.645 9.23167 4.745 9.345 4.84333 9.46C6.195 11.0333 6.60667 12.86 6.905 14.1933C7.00667 14.6417 7.09333 15.03 7.20167 15.3483L7.21 15.375C7.335 15.755 7.67167 16 8.07 16C8.09667 16 8.125 15.9967 8.15 15.99C8.175 15.9967 8.20333 16 8.23 16C8.62833 16 8.965 15.755 9.09 15.375L9.09833 15.3483C9.20667 15.03 9.29333 14.6417 9.395 14.1933C9.69333 12.86 10.105 11.0333 11.4567 9.46C11.555 9.345 11.655 9.23167 11.755 9.11833C12.515 8.25667 13.3 7.36667 13.3 6.06667V4.07333C13.3 1.82667 11.4733 0 9.22667 0ZM9.67667 4.66167V5.305C9.67667 5.925 9.17167 6.43 8.55167 6.43H7.90833C7.28833 6.43 6.78333 5.925 6.78333 5.305V4.66167C6.78333 4.04167 7.28833 3.53667 7.90833 3.53667H8.55167C9.17167 3.53667 9.67667 4.04167 9.67667 4.66167Z" fill="#3FA1E3"/>
</svg>
