<svg width="16" height="16" viewBox="0 0 16 16" fill="none" xmlns="http://www.w3.org/2000/svg">
<g clip-path="url(#clip0_3550_507)">
<path d="M7.99913 0.400391C3.80297 0.402791 0.401367 3.80423 0.401367 8.00263C0.401367 12.1964 3.80297 15.598 7.99913 15.6004C8.88563 15.6037 9.76577 15.4507 10.5991 15.1484C10.8292 15.064 11.0164 14.8916 11.1195 14.6692C11.2226 14.4469 11.2333 14.1927 11.149 13.9625C10.9719 13.4849 10.4431 13.2378 9.96313 13.415C9.3335 13.6427 8.66868 13.7579 7.99913 13.7551C4.82105 13.7551 2.24441 11.1783 2.24441 8.00039C2.24441 4.82247 4.82105 2.24567 7.99913 2.24567C11.1772 2.24567 13.7538 4.82247 13.7538 8.00039C13.7512 8.6867 13.6167 9.36611 13.3577 10.0017C13.3205 10.1108 13.2513 10.2061 13.159 10.2751C13.0667 10.3442 12.9557 10.3837 12.8406 10.3886C12.6157 10.3885 12.4 10.2992 12.241 10.1401C12.082 9.98111 11.9926 9.76544 11.9926 9.54055V8.00039C12.0158 5.77063 10.2287 3.94183 7.99673 3.91847C5.76713 3.89287 3.93817 5.68215 3.91481 7.91191C3.88921 10.1439 5.67849 11.9705 7.90825 11.9961C8.8917 12.0064 9.84515 11.6577 10.5898 11.0153C10.8346 11.389 11.1684 11.6961 11.5613 11.9088C11.9542 12.1214 12.3938 12.2331 12.8406 12.2337C13.3224 12.2279 13.7914 12.0781 14.1875 11.8037C14.5835 11.5293 14.8885 11.1427 15.0631 10.6937C15.4149 9.8392 15.5969 8.92443 15.5991 8.00039C15.5921 3.80663 12.1927 0.407431 7.99913 0.400391ZM9.51817 9.51943C9.31884 9.71912 9.08205 9.87749 8.82137 9.98545C8.5607 10.0934 8.28127 10.1488 7.99913 10.1486C6.81321 10.1486 5.85097 9.18631 5.85097 8.00039C5.85097 6.81447 6.81321 5.85223 7.99913 5.85223C9.18505 5.85223 10.1471 6.81447 10.1471 8.00039C10.1471 8.59223 9.90713 9.13031 9.51817 9.51943ZM7.99913 0.400391C3.80297 0.402791 0.401367 3.80423 0.401367 8.00263C0.401367 12.1964 3.80297 15.598 7.99913 15.6004C8.88563 15.6037 9.76577 15.4507 10.5991 15.1484C10.8292 15.064 11.0164 14.8916 11.1195 14.6692C11.2226 14.4469 11.2333 14.1927 11.149 13.9625C10.9719 13.4849 10.4431 13.2378 9.96313 13.415C9.3335 13.6427 8.66868 13.7579 7.99913 13.7551C4.82105 13.7551 2.24441 11.1783 2.24441 8.00039C2.24441 4.82247 4.82105 2.24567 7.99913 2.24567C11.1772 2.24567 13.7538 4.82247 13.7538 8.00039C13.7512 8.6867 13.6167 9.36611 13.3577 10.0017C13.3205 10.1108 13.2513 10.2061 13.159 10.2751C13.0667 10.3442 12.9557 10.3837 12.8406 10.3886C12.6157 10.3885 12.4 10.2992 12.241 10.1401C12.082 9.98111 11.9926 9.76544 11.9926 9.54055V8.00039C12.0158 5.77063 10.2287 3.94183 7.99673 3.91847C5.76713 3.89287 3.93817 5.68215 3.91481 7.91191C3.88921 10.1439 5.67849 11.9705 7.90825 11.9961C8.8917 12.0064 9.84515 11.6577 10.5898 11.0153C10.8346 11.389 11.1684 11.6961 11.5613 11.9088C11.9542 12.1214 12.3938 12.2331 12.8406 12.2337C13.3224 12.2279 13.7914 12.0781 14.1875 11.8037C14.5835 11.5293 14.8885 11.1427 15.0631 10.6937C15.4149 9.8392 15.5969 8.92443 15.5991 8.00039C15.5921 3.80663 12.1927 0.407431 7.99913 0.400391ZM9.51817 9.51943C9.31884 9.71912 9.08205 9.87749 8.82137 9.98545C8.5607 10.0934 8.28127 10.1488 7.99913 10.1486C6.81321 10.1486 5.85097 9.18631 5.85097 8.00039C5.85097 6.81447 6.81321 5.85223 7.99913 5.85223C9.18505 5.85223 10.1471 6.81447 10.1471 8.00039C10.1471 8.59223 9.90713 9.13031 9.51817 9.51943ZM7.99913 0.400391C3.80297 0.402791 0.401367 3.80423 0.401367 8.00263C0.401367 12.1964 3.80297 15.598 7.99913 15.6004C8.88563 15.6037 9.76577 15.4507 10.5991 15.1484C10.8292 15.064 11.0164 14.8916 11.1195 14.6692C11.2226 14.4469 11.2333 14.1927 11.149 13.9625C10.9719 13.4849 10.4431 13.2378 9.96313 13.415C9.3335 13.6427 8.66868 13.7579 7.99913 13.7551C4.82105 13.7551 2.24441 11.1783 2.24441 8.00039C2.24441 4.82247 4.82105 2.24567 7.99913 2.24567C11.1772 2.24567 13.7538 4.82247 13.7538 8.00039C13.7512 8.6867 13.6167 9.36611 13.3577 10.0017C13.3205 10.1108 13.2513 10.2061 13.159 10.2751C13.0667 10.3442 12.9557 10.3837 12.8406 10.3886C12.6157 10.3885 12.4 10.2992 12.241 10.1401C12.082 9.98111 11.9926 9.76544 11.9926 9.54055V8.00039C12.0158 5.77063 10.2287 3.94183 7.99673 3.91847C5.76713 3.89287 3.93817 5.68215 3.91481 7.91191C3.88921 10.1439 5.67849 11.9705 7.90825 11.9961C8.8917 12.0064 9.84515 11.6577 10.5898 11.0153C10.8346 11.389 11.1684 11.6961 11.5613 11.9088C11.9542 12.1214 12.3938 12.2331 12.8406 12.2337C13.3224 12.2279 13.7914 12.0781 14.1875 11.8037C14.5835 11.5293 14.8885 11.1427 15.0631 10.6937C15.4149 9.8392 15.5969 8.92443 15.5991 8.00039C15.5921 3.80663 12.1927 0.407431 7.99913 0.400391ZM9.51817 9.51943C9.31884 9.71912 9.08205 9.87749 8.82137 9.98545C8.5607 10.0934 8.28127 10.1488 7.99913 10.1486C6.81321 10.1486 5.85097 9.18631 5.85097 8.00039C5.85097 6.81447 6.81321 5.85223 7.99913 5.85223C9.18505 5.85223 10.1471 6.81447 10.1471 8.00039C10.1471 8.59223 9.90713 9.13031 9.51817 9.51943Z" fill="#3FA1E3"/>
</g>
<defs>
<clipPath id="clip0_3550_507">
<rect width="16" height="16" fill="white"/>
</clipPath>
</defs>
</svg>
