<svg width="256" height="256" viewBox="0 0 256 256" fill="none" xmlns="http://www.w3.org/2000/svg">
<path fill-rule="evenodd" clip-rule="evenodd" d="M94.3989 255C98.8172 255 102.399 251.418 102.399 247V163.193C93.0014 155.53 87.0002 143.861 87.0002 130.79C87.0002 107.71 105.71 89 128.79 89C151.87 89 170.579 107.71 170.579 130.79C170.579 143.432 164.966 154.763 156.095 162.426C156.104 162.587 156.109 162.748 156.109 162.909V247C156.109 251.418 159.691 255 164.109 255H239.193C244.688 255 248.547 249.588 246.756 244.393L164.367 5.39276C163.254 2.16574 160.217 0 156.803 0H98.7315C95.3195 0 92.2829 2.16416 91.1695 5.38948L8.66312 244.389C6.86955 249.585 10.7288 255 16.2252 255H94.3989Z" fill="#3FA1E3"/>
</svg>
