<svg width="239" height="255" viewBox="0 0 239 255" fill="none" xmlns="http://www.w3.org/2000/svg">
<path fill-rule="evenodd" clip-rule="evenodd" d="M86.1802 255C90.5984 255 94.1802 251.418 94.1802 247V163.193C84.7827 155.53 78.7814 143.861 78.7814 130.79C78.7814 107.71 97.4913 89 120.571 89C143.651 89 162.361 107.71 162.361 130.79C162.361 143.432 156.747 154.763 147.876 162.426C147.886 162.587 147.891 162.748 147.891 162.909V247C147.891 251.418 151.472 255 155.891 255H230.974C236.469 255 240.328 249.588 238.537 244.393L156.148 5.39276C155.035 2.16574 151.998 0 148.585 0H90.5128C87.1007 0 84.0641 2.16416 82.9507 5.38948L0.444368 244.389C-1.3492 249.585 2.51009 255 8.00646 255H86.1802Z" fill="white"/>
</svg>
