<svg width="96" height="96" viewBox="0 0 96 96" fill="none" xmlns="http://www.w3.org/2000/svg">
<g clip-path="url(#clip0_3550_865)">
<path d="M6.156 36H43.844C45.4763 35.9989 47.0415 35.35 48.1958 34.1958C49.35 33.0415 49.9989 31.4763 50 29.844V6.156C49.9989 4.52365 49.35 2.95847 48.1958 1.80422C47.0415 0.649977 45.4763 0.00105962 43.844 0L6.156 0C4.52365 0.00105962 2.95847 0.649977 1.80422 1.80422C0.649977 2.95847 0.00105962 4.52365 0 6.156L0 29.844C0.00105962 31.4763 0.649977 33.0415 1.80422 34.1958C2.95847 35.35 4.52365 35.9989 6.156 36ZM4 6.156C4.00106 5.58452 4.22855 5.03675 4.63265 4.63265C5.03675 4.22855 5.58452 4.00106 6.156 4H43.844C44.4155 4.00106 44.9633 4.22855 45.3674 4.63265C45.7715 5.03675 45.9989 5.58452 46 6.156V29.844C45.9989 30.4155 45.7715 30.9633 45.3674 31.3674C44.9633 31.7715 44.4155 31.9989 43.844 32H6.156C5.58452 31.9989 5.03675 31.7715 4.63265 31.3674C4.22855 30.9633 4.00106 30.4155 4 29.844V6.156ZM6.156 96H29.844C31.4763 95.9989 33.0415 95.35 34.1958 94.1958C35.35 93.0415 35.9989 91.4763 36 89.844V52.156C35.9989 50.5237 35.35 48.9585 34.1958 47.8042C33.0415 46.65 31.4763 46.0011 29.844 46H6.156C4.52365 46.0011 2.95847 46.65 1.80422 47.8042C0.649977 48.9585 0.00105962 50.5237 0 52.156V89.844C0.00105962 91.4763 0.649977 93.0415 1.80422 94.1958C2.95847 95.35 4.52365 95.9989 6.156 96ZM4 52.156C4.00106 51.5845 4.22855 51.0367 4.63265 50.6326C5.03675 50.2285 5.58452 50.0011 6.156 50H29.844C30.4155 50.0011 30.9633 50.2285 31.3674 50.6326C31.7715 51.0367 31.9989 51.5845 32 52.156V89.844C31.9989 90.4155 31.7715 90.9633 31.3674 91.3674C30.9633 91.7715 30.4155 91.9989 29.844 92H6.156C5.58452 91.9989 5.03675 91.7715 4.63265 91.3674C4.22855 90.9633 4.00106 90.4155 4 89.844V52.156ZM89.844 46H52.156C50.5237 46.0011 48.9585 46.65 47.8042 47.8042C46.65 48.9585 46.0011 50.5237 46 52.156V89.844C46.0011 91.4763 46.65 93.0415 47.8042 94.1958C48.9585 95.35 50.5237 95.9989 52.156 96H89.844C91.4763 95.9989 93.0415 95.35 94.1958 94.1958C95.35 93.0415 95.9989 91.4763 96 89.844V52.156C95.9989 50.5237 95.35 48.9585 94.1958 47.8042C93.0415 46.65 91.4763 46.0011 89.844 46ZM92 89.844C91.9989 90.4155 91.7715 90.9633 91.3674 91.3674C90.9633 91.7715 90.4155 91.9989 89.844 92H52.156C51.5845 91.9989 51.0367 91.7715 50.6326 91.3674C50.2285 90.9633 50.0011 90.4155 50 89.844V52.156C50.0011 51.5845 50.2285 51.0367 50.6326 50.6326C51.0367 50.2285 51.5845 50.0011 52.156 50H89.844C90.4155 50.0011 90.9633 50.2285 91.3674 50.6326C91.7715 51.0367 91.9989 51.5845 92 52.156V89.844ZM89.844 0H66.156C64.5237 0.00105962 62.9585 0.649977 61.8042 1.80422C60.65 2.95847 60.0011 4.52365 60 6.156V29.844C60.0011 31.4763 60.65 33.0415 61.8042 34.1958C62.9585 35.35 64.5237 35.9989 66.156 36H89.844C91.4763 35.9989 93.0415 35.35 94.1958 34.1958C95.35 33.0415 95.9989 31.4763 96 29.844V6.156C95.9989 4.52365 95.35 2.95847 94.1958 1.80422C93.0415 0.649977 91.4763 0.00105962 89.844 0ZM92 29.844C91.9989 30.4155 91.7715 30.9633 91.3674 31.3674C90.9633 31.7715 90.4155 31.9989 89.844 32H66.156C65.5845 31.9989 65.0367 31.7715 64.6326 31.3674C64.2285 30.9633 64.0011 30.4155 64 29.844V6.156C64.0011 5.58452 64.2285 5.03675 64.6326 4.63265C65.0367 4.22855 65.5845 4.00106 66.156 4H89.844C90.4155 4.00106 90.9633 4.22855 91.3674 4.63265C91.7715 5.03675 91.9989 5.58452 92 6.156V29.844Z" fill="url(#paint0_linear_3550_865)"/>
</g>
<defs>
<linearGradient id="paint0_linear_3550_865" x1="48" y1="0" x2="48" y2="65.4672" gradientUnits="userSpaceOnUse">
<stop stop-color="#3FA1E3" stop-opacity="0.5"/>
<stop offset="1" stop-color="#3FA1E3"/>
</linearGradient>
<clipPath id="clip0_3550_865">
<rect width="96" height="96" fill="white"/>
</clipPath>
</defs>
</svg>
