<svg width="96" height="96" viewBox="0 0 96 96" fill="none" xmlns="http://www.w3.org/2000/svg">
<g clip-path="url(#clip0_3550_868)">
<path d="M38 40C26.972 40 18 31.028 18 20C18 8.972 26.972 0 38 0C49.028 0 58 8.972 58 20C58 31.028 49.028 40 38 40ZM38 4C29.176 4 22 11.176 22 20C22 28.824 29.176 36 38 36C46.824 36 54 28.824 54 20C54 11.176 46.824 4 38 4ZM36 84H4C3.46957 84 2.96086 83.7893 2.58579 83.4142C2.21071 83.0391 2 82.5304 2 82V66C2 56.076 10.076 48 20 48H44C44.5304 48 45.0391 48.2107 45.4142 48.5858C45.7893 48.9609 46 49.4696 46 50C46 50.5304 45.7893 51.0391 45.4142 51.4142C45.0391 51.7893 44.5304 52 44 52H20C12.28 52 6 58.28 6 66V80H36C36.5304 80 37.0391 80.2107 37.4142 80.5858C37.7893 80.9609 38 81.4696 38 82C38 82.5304 37.7893 83.0391 37.4142 83.4142C37.0391 83.7893 36.5304 84 36 84ZM70 80C64.488 80 60 75.512 60 70C60 64.488 64.488 60 70 60C75.512 60 80 64.488 80 70C80 75.512 75.512 80 70 80ZM70 64C66.692 64 64 66.692 64 70C64 73.308 66.692 76 70 76C73.308 76 76 73.308 76 70C76 66.692 73.308 64 70 64Z" fill="url(#paint0_linear_3550_868)"/>
<path d="M73.188 96H66.808C65.8147 96.0035 64.856 95.6359 64.1197 94.9692C63.3834 94.3025 62.9227 93.3848 62.828 92.396L62.32 87.312C61.0983 86.7665 59.9384 86.092 58.86 85.3L54.188 87.408C53.2845 87.8201 52.2595 87.8795 51.3144 87.5746C50.3693 87.2697 49.5723 86.6225 49.08 85.76L45.892 80.236C45.394 79.3775 45.2337 78.3644 45.4422 77.3941C45.6508 76.4238 46.2133 75.566 47.02 74.988L51.136 72.028C51.056 71.408 51 70.72 51 70C51 69.28 51.056 68.588 51.136 67.972L47.02 65.012C46.2133 64.434 45.6508 63.5762 45.4422 62.6059C45.2337 61.6356 45.394 60.6225 45.892 59.764L49.08 54.24C49.573 53.3782 50.37 52.7316 51.3148 52.4268C52.2597 52.1219 53.2843 52.1808 54.188 52.592L58.86 54.7C59.952 53.9 61.108 53.228 62.32 52.688L62.828 47.604C62.9237 46.616 63.3847 45.6992 64.1209 45.0333C64.8571 44.3675 65.8153 44.0004 66.808 44.004H73.188C75.252 44.004 76.964 45.552 77.168 47.608L77.676 52.692C78.892 53.232 80.048 53.908 81.136 54.704L85.808 52.596C86.712 52.1867 87.7359 52.1288 88.6803 52.4334C89.6247 52.7381 90.4217 53.3836 90.916 54.244L94.104 59.768C94.602 60.6265 94.7623 61.6396 94.5537 62.6099C94.3452 63.5802 93.7827 64.438 92.976 65.016L88.86 67.976C88.94 68.596 88.996 69.284 88.996 70.004C88.996 70.724 88.94 71.416 88.86 72.032L92.976 74.992C94.648 76.196 95.136 78.452 94.104 80.24L90.92 85.76C90.427 86.6218 89.63 87.2684 88.6852 87.5732C87.7403 87.8781 86.7157 87.8192 85.812 87.408L81.14 85.3C80.048 86.1 78.892 86.772 77.68 87.312L77.168 92.4C77.0723 93.388 76.6113 94.3048 75.8751 94.9707C75.1389 95.6366 74.1807 96.0036 73.188 96ZM59.14 80.98C59.6097 80.9804 60.0642 81.1461 60.424 81.448C61.78 82.584 63.28 83.452 64.876 84.036C65.2294 84.1651 65.5391 84.3911 65.7698 84.6883C66.0005 84.9855 66.1426 85.3417 66.18 85.716L66.812 92H73.192L73.82 85.716C73.8574 85.3417 73.9995 84.9855 74.2302 84.6883C74.4609 84.3911 74.7706 84.1651 75.124 84.036C76.7463 83.4368 78.2525 82.5612 79.576 81.448C79.8643 81.2073 80.2145 81.0526 80.5866 81.0017C80.9587 80.9508 81.3376 81.0056 81.68 81.16L87.456 83.768L90.644 78.244L85.532 74.572C85.2269 74.3514 84.9898 74.0497 84.8477 73.7011C84.7056 73.3525 84.6641 72.971 84.728 72.6C84.876 71.756 84.996 70.896 84.996 70.008C84.996 69.12 84.876 68.26 84.728 67.416C84.6636 67.045 84.7049 66.6633 84.847 66.3146C84.9892 65.9659 85.2266 65.6642 85.532 65.444L90.644 61.772L87.456 56.248L81.68 58.852C81.337 59.0067 80.9574 59.0618 80.5846 59.0108C80.2118 58.9599 79.8609 58.8051 79.572 58.564C78.2513 57.4469 76.7443 56.5709 75.12 55.976C74.7666 55.847 74.4569 55.6209 74.2262 55.3237C73.9955 55.0265 73.8534 54.6703 73.816 54.296L73.188 48H66.808L66.18 54.284C66.1426 54.6583 66.0005 55.0145 65.7698 55.3117C65.5391 55.6089 65.2294 55.8349 64.876 55.964C63.2537 56.5632 61.7475 57.4388 60.424 58.552C60.1364 58.794 59.7861 58.9495 59.4137 59.0005C59.0413 59.0515 58.6621 58.9958 58.32 58.84L52.544 56.232L49.356 61.756L54.468 65.428C54.7731 65.6486 55.0102 65.9503 55.1523 66.2989C55.2944 66.6475 55.3359 67.029 55.272 67.4C55.124 68.244 55.004 69.104 55.004 69.992C55.004 70.88 55.124 71.74 55.272 72.584C55.3364 72.955 55.2951 73.3367 55.153 73.6854C55.0108 74.0341 54.7734 74.3358 54.468 74.556L49.356 78.228L52.544 83.752L58.32 81.148C58.5792 81.0372 58.8581 80.9801 59.14 80.98Z" fill="url(#paint1_linear_3550_868)"/>
</g>
<defs>
<linearGradient id="paint0_linear_3550_868" x1="69.9987" y1="44.0039" x2="69.9987" y2="79.4626" gradientUnits="userSpaceOnUse">
<stop stop-color="#3FA1E3" stop-opacity="0.5"/>
<stop offset="1" stop-color="#3FA1E3"/>
</linearGradient>
<linearGradient id="paint1_linear_3550_868" x1="69.9987" y1="44.0039" x2="69.9987" y2="79.4626" gradientUnits="userSpaceOnUse">
<stop stop-color="#3FA1E3" stop-opacity="0.5"/>
<stop offset="1" stop-color="#3FA1E3"/>
</linearGradient>
<clipPath id="clip0_3550_868">
<rect width="96" height="96" fill="white"/>
</clipPath>
</defs>
</svg>
